<?xml version="1.0" encoding="UTF-8"?>
<svg id="Mail" xmlns="http://www.w3.org/2000/svg" viewBox="0 0 240 240">
  <defs>
    <style>
      .cls-1 {
        fill: none;
      }

      .cls-2 {
        fill: #0070f2;
      }

      .cls-3 {
        fill: #89d1ff;
      }

      .cls-4 {
        fill: #1a2733;
      }
    </style>
  </defs>
  <g>
    <polygon class="cls-3" points="193.98 122.95 214.24 106.1 208.04 106.09 193.98 106.06 193.98 122.95"/>
    <polygon class="cls-3" points="214.27 106.08 193.98 88.8 193.98 106.06 208.04 106.09 214.24 106.1 214.27 106.08"/>
    <polygon class="cls-3" points="25.46 105.92 46.05 122.91 46.05 105.77 25.69 105.73 25.46 105.92"/>
    <polygon class="cls-3" points="46.05 105.77 46.05 88.41 25.69 105.73 46.05 105.77"/>
    <polygon class="cls-3" points="72.79 65.68 166.82 65.68 119.83 25.67 72.79 65.68"/>
  </g>
  <path class="cls-2" d="m78.75,101.05c3.65,0,6.61-2.97,6.61-6.61s-2.97-6.61-6.61-6.61-6.61,2.97-6.61,6.61,2.97,6.61,6.61,6.61Z"/>
  <g>
    <path class="cls-1" d="m48.55,105.78h0v19.19l16.66,13.74,23.94,19.74,23.47-19.74,6.57-5.53c.46-.39,1.14-.39,1.61,0l6.57,5.53,23.69,19.93,23.96-19.93,16.46-13.69v-18.97h0v-37.88H48.55v37.6Zm45.92-16.66h47.27v2.5h-47.27v-2.5Zm0,8.01h62.89v2.5h-62.89v-2.5Zm-15.72-11.79c5.02,0,9.11,4.09,9.11,9.11s-4.09,9.11-9.11,9.11-9.11-4.09-9.11-9.11,4.09-9.11,9.11-9.11Z"/>
    <path class="cls-1" d="m72.14,94.44c0,3.65,2.97,6.61,6.61,6.61s6.61-2.97,6.61-6.61-2.97-6.61-6.61-6.61-6.61,2.97-6.61,6.61Z"/>
    <polygon class="cls-1" points="152.89 163.44 151.4 162.19 149.71 160.77 123.49 138.71 120 135.78 116.51 138.71 90.79 160.35 88.59 162.19 87.11 163.44 85.62 164.69 26.21 214.66 27.01 214.66 213.43 214.66 213.78 214.66 154.37 164.69 152.89 163.44"/>
    <polygon class="cls-1" points="119.83 25.67 72.79 65.68 166.82 65.68 119.83 25.67"/>
    <polygon class="cls-1" points="193.98 106.06 193.98 106.06 193.98 122.95 214.24 106.1 214.27 106.09 214.24 106.1 214.27 106.08 193.98 88.8 193.98 106.06"/>
    <polygon class="cls-1" points="25.69 105.73 25.46 105.92 46.05 122.91 46.05 105.77 46.05 105.77 46.05 88.41 25.69 105.73 25.69 105.73"/>
    <polygon class="cls-1" points="193.98 126.2 192.73 127.24 191.48 128.28 178.93 138.71 153 160.27 155.29 162.19 156.77 163.44 158.26 164.69 215.11 212.51 215.11 138.71 215.11 108.63 193.98 126.2"/>
    <polygon class="cls-1" points="83.22 163.44 84.71 162.19 87.2 160.09 61.29 138.71 48.55 128.21 47.3 127.18 46.05 126.15 24.97 108.76 24.97 138.71 24.97 212.44 81.74 164.69 83.22 163.44"/>
    <path class="cls-4" d="m217.38,105.66c-.07-.19-.17-.37-.34-.51l-23.06-19.63v-18.59c0-.69-.56-1.25-1.25-1.25h-22.06l-50.03-42.6c-.47-.4-1.15-.4-1.62,0l-50.09,42.6h-21.63c-.69,0-1.25.56-1.25,1.25v18.21l-23.1,19.64c-.29.25-.43.6-.42.96-.02.07-.02.14-.02.21,0,.06-.03.11-.03.16v108.44h0s0,0,0,0v1.36c0,.69.56,1.25,1.25,1.25h192.64c.69,0,1.25-.56,1.25-1.25v-109.58c0-.25-.09-.48-.23-.68Zm-3.95,109H26.21l59.41-49.97,1.49-1.25,1.49-1.25,2.2-1.85,25.72-21.63,3.49-2.94,3.49,2.94,26.22,22.05,1.69,1.43,1.49,1.25,1.49,1.25,59.41,49.97h-.35ZM48.55,83.01v-14.83h142.93v37.88h0v18.97l-16.46,13.69-23.96,19.93-23.69-19.93-6.57-5.53c-.46-.39-1.14-.39-1.61,0l-6.57,5.53-23.47,19.74-23.94-19.74-16.66-13.74v-19.19h0v-22.77ZM119.83,25.67l46.99,40.01h-94.03l47.04-40.01Zm95.27,186.84l-56.85-47.82-1.49-1.25-1.49-1.25-2.28-1.92,25.93-21.56,12.55-10.44,1.25-1.04,1.25-1.04,21.12-17.56v103.88Zm-.87-106.41h0s-20.26,16.84-20.26,16.84v-16.88h0v-17.26l20.29,17.27-.03.02Zm-168.19-.33h0v17.14l-20.59-16.98.22-.19h0s20.36-17.32,20.36-17.32v17.36Zm-21.08,32.94v-29.96l21.08,17.39,1.25,1.03,1.25,1.03,12.73,10.5,25.92,21.38-2.5,2.1-1.49,1.25-1.49,1.25-56.76,47.75v-73.73Z"/>
    <path class="cls-4" d="m78.75,103.55c5.02,0,9.11-4.09,9.11-9.11s-4.09-9.11-9.11-9.11-9.11,4.09-9.11,9.11,4.09,9.11,9.11,9.11Zm6.61-9.11c0,3.65-2.97,6.61-6.61,6.61s-6.61-2.97-6.61-6.61,2.97-6.61,6.61-6.61,6.61,2.97,6.61,6.61Z"/>
    <rect class="cls-4" x="94.47" y="89.11" width="47.27" height="2.5"/>
    <rect class="cls-4" x="94.47" y="97.12" width="62.89" height="2.5"/>
  </g>
</svg>